#!OML:ASF E:\motion texture\Top Level 1\Subject 1\Session 1\male.ASF
:FULLY-SPECIFIED
:DEGREES
259
root -3.55371 18.0606 3.70893 480.011 -76.8749 -478.124
lowerback 2.00158 2.71051 9.52049
upperback -1.27295 3.85875 3.32888
thorax -2.05102 1.75587 -1.9921
lowerneck -18.4436 -5.46494 -6.77149
upperneck 13.5695 -7.01134 7.43039
head 7.71662 -3.01447 2.70257
rclavicle 1.29719e-014 -1.42131e-014
rhumerus -1.40577 20.1919 -85.2585
rradius 75.1056
rwrist -3.78211
rhand -12.3652 -8.81309
rfingers 7.12502
rthumb 13.7051 -38.3418
lclavicle 1.29719e-014 -1.42131e-014
lhumerus -53.4735 5.16281 69.2426
lradius 32.9215
lwrist -13.158
lhand -6.21951 6.62981
lfingers 7.12502
lthumb 19.6213 35.6596
rfemur 7.64827 7.74063 37.9764
rtibia 20.0492
rfoot 348.881 -1.45097
rtoes 3.47515
lfemur -78.4152 8.46046 -9.77808
ltibia 87.2949
lfoot 370.969 51.9229
ltoes -3.63329
260
root -3.70273 18.037 3.71235 480.888 -76.8536 -478.657
lowerback 1.64746 2.74054 9.50648
upperback -1.382 3.86082 3.27569
thorax -1.9622 1.75782 -2.02349
lowerneck -18.4679 -5.44909 -6.79448
upperneck 13.653 -6.99956 7.48862
head 7.75076 -3.00354 2.72684
rclavicle 2.58412e-014 3.04638e-014
rhumerus -2.78298 20.1066 -85.7028
rradius 74.8887
rwrist -3.73914
rhand -12.3348 -8.88716
rfingers 7.12502
rthumb 13.7344 -38.4139
lclavicle 2.58412e-014 3.04638e-014
lhumerus -53.1328 5.09385 70.0675
lradius 33.4463
lwrist -12.7222
lhand -6.39509 6.57895
lfingers 7.12502
lthumb 19.4525 35.6259
rfemur 7.8739 7.80416 37.8318
rtibia 19.9429
rfoot 348.722 -1.26458
rtoes 3.10036
lfemur -76.4975 8.81354 -9.73466
ltibia 84.2841
lfoot 374.25 33.1371
ltoes -3.63882
261
root -3.85511 18.0117 3.71635 481.719 -76.827 -479.158
lowerback 1.29613 2.76305 9.501
upperback -1.49366 3.85336 3.22806
thorax -1.87854 1.75438 -2.05382
lowerneck -18.4749 -5.42522 -6.7854
upperneck 13.7316 -6.97963 7.51261
head 7.77715 -2.99069 2.73592
rclavicle 6.01135e-014 1.0476e-013
rhumerus -4.22888 20.014 -86.1592
rradius 74.6605
rwrist -3.69846
rhand -12.2902 -8.95355
rfingers 7.12502
rthumb 13.7774 -38.4774
lclavicle 6.01135e-014 1.0476e-013
lhumerus -52.7768 5.06804 70.8921
lradius 33.9736
lwrist -12.2857
lhand -6.62533 6.54124
lfingers 7.12502
lthumb 19.2311 35.6104
rfemur 8.11828 7.84464 37.6877
rtibia 19.8524
rfoot 348.572 -1.06874
rtoes 2.76272
lfemur -74.4461 9.16036 -9.68565
ltibia 80.5405
lfoot 376.858 14.5709
ltoes -3.50564
262
root -4.01188 17.9847 3.72123 482.533 -76.7962 -479.66
lowerback 0.937816 2.77959 9.50153
upperback -1.60884 3.83709 3.18428
thorax -1.79546 1.74612 -2.08311
lowerneck -18.4717 -5.39354 -6.76586
upperneck 13.8242 -6.95185 7.52758
head 7.80513 -2.97455 2.74155
rclavicle -1.68086e-014 -5.45664e-014
rhumerus -5.75014 19.9142 -86.6288
rradius 74.4212
rwrist -3.65831
rhand -12.2263 -9.03254
rfingers 7.12502
rthumb 13.8389 -38.5522
lclavicle -1.68086e-014 -5.45664e-014
lhumerus -52.4138 5.0922 71.7115
lradius 34.5097
lwrist -11.8409
lhand -6.87916 6.50967
lfingers 7.12502
lthumb 18.987 35.6029
rfemur 8.37772 7.85314 37.531
rtibia 19.7884
rfoot 348.433 -0.849105
rtoes 2.43422
lfemur -72.262 9.49994 -9.63636
ltibia 77.011
lfoot 379.199 -3.78941
ltoes -3.24639
263
root -4.17382 17.9563 3.72715 483.294 -76.7764 -480.128
lowerback 0.561324 2.786 9.50177
upperback -1.71936 3.80436 3.14221
thorax -1.69916 1.73019 -2.10942
lowerneck -18.4691 -5.35503 -6.73601
upperneck 13.933 -6.91731 7.53515
head 7.8374 -2.95522 2.74396
rclavicle -3.58977e-014 2.08724e-015
rhumerus -7.32826 19.7969 -87.1077
rradius 74.15
rwrist -3.61317
rhand -12.131 -9.08828
rfingers 7.12502
rthumb 13.9308 -38.6016
lclavicle -3.58977e-014 2.08724e-015
lhumerus -52.0416 5.17057 72.53
lradius 35.0722
lwrist -11.3793
lhand -7.11909 6.51431
lfingers 7.12502
lthumb 18.7563 35.63
rfemur 8.64983 7.81599 37.3478
rtibia 19.763
rfoot 348.313 -0.606449
rtoes 2.05381
lfemur -69.9533 9.81012 -9.59636
ltibia 73.9373
lfoot 379.898 -3.92797
ltoes -2.87668
264
root -4.34044 17.9265 3.73366 483.979 -76.776 -480.544
lowerback 0.179773 2.77861 9.48623
upperback -1.83335 3.75255 3.10371
thorax -1.60689 1.70461 -2.12354
lowerneck -18.452 -5.30978 -6.69197
upperneck 14.057 -6.87727 7.531
head 7.87089 -2.93389 2.74115
rclavicle 1.26306e-014 1.05356e-014
rhumerus -8.99141 19.656 -87.5968
rradius 73.8668
rwrist -3.5682
rhand -12.0337 -9.14999
rfingers 7.12502
rthumb 14.0245 -38.6569
lclavicle 1.26306e-014 1.05356e-014
lhumerus -51.6684 5.30007 73.3516
lradius 35.6618
lwrist -10.911
lhand -7.36148 6.48242
lfingers 7.12502
lthumb 18.5231 35.6205
rfemur 8.93266 7.74302 37.1401
rtibia 19.7821
rfoot 348.23 -0.347232
rtoes 1.62421
lfemur -67.5233 10.069 -9.55892
ltibia 70.8698
lfoot 380.419 -3.7157
ltoes -2.48233
265
root -4.51189 17.8955 3.74084 484.59 -76.8014 -480.913
lowerback -0.210724 2.7573 9.44806
upperback -1.94383 3.68065 3.0696
thorax -1.50967 1.6696 -2.12077
lowerneck -18.4287 -5.26021 -6.6419
upperneck 14.1936 -6.83378 7.52391
head 7.90694 -2.91095 2.73697
rclavicle 6.99163e-015 2.56432e-014
rhumerus -10.7319 19.4781 -88.0872
rradius 73.5712
rwrist -3.53068
rhand -11.9224 -9.21021
rfingers 7.12502
rthumb 14.1318 -38.7096
lclavicle 6.99163e-015 2.56432e-014
lhumerus -51.2807 5.48057 74.1919
lradius 36.2849
lwrist -10.4409
lhand -7.60813 6.37574
lfingers 7.12502
lthumb 18.2859 35.5362
rfemur 9.21686 7.63928 36.9017
rtibia 19.8661
rfoot 348.19 -0.0634548
rtoes 1.13143
lfemur -64.9752 10.2541 -9.51611
ltibia 67.8204
lfoot 380.822 -3.34842
ltoes -2.0901
266
root -4.68829 17.8637 3.74835 485.135 -76.8599 -481.253
lowerback -0.610651 2.72335 9.37283
upperback -2.04571 3.59037 3.04068
thorax -1.4025 1.62663 -2.0925
lowerneck -18.3966 -5.20945 -6.58978
upperneck 14.3362 -6.78995 7.51479
head 7.94335 -2.88812 2.73199
rclavicle -5.7601e-015 1.59028e-015
rhumerus -12.5539 19.244 -88.5703
rradius 73.2708
rwrist -3.50373
rhand -11.8085 -9.2726
rfingers 7.12502
rthumb 14.2415 -38.7643
lclavicle -5.7601e-015 1.59028e-015
lhumerus -50.8581 5.69226 75.0796
lradius 36.9388
lwrist -9.97151
lhand -7.89605 6.20237
lfingers 7.12502
lthumb 18.0089 35.3886
rfemur 9.50058 7.51305 36.6264
rtibia 20.032
rfoot 348.211 0.240868
rtoes 0.579915
lfemur -62.2924 10.3354 -9.45269
ltibia 64.7669
lfoot 381.189 -2.98614
ltoes -1.70665
267
root -4.87007 17.8313 3.75665 485.673 -76.949 -481.621
lowerback -1.02292 2.68365 9.26145
upperback -2.13671 3.49085 3.0141
thorax -1.27997 1.58051 -2.04208
lowerneck -18.3546 -5.16137 -6.53725
upperneck 14.4822 -6.75035 7.50301
head 7.97941 -2.86778 2.72565
rclavicle 2.96096e-014 -7.85199e-015
rhumerus -14.4748 18.9164 -89.0423
rradius 72.9862
rwrist -3.48608
rhand -11.676 -9.33727
rfingers 7.12502
rthumb 14.3692 -38.8199
lclavicle 2.96096e-014 -7.85199e-015
lhumerus -50.3927 5.89373 76.0493
lradius 37.6399
lwrist -9.50738
lhand -8.23622 5.97171
lfingers 7.12502
lthumb 17.6815 35.1878
rfemur 9.76609 7.35901 36.2969
rtibia 20.3177
rfoot 348.303 0.598697
rtoes -0.0404288
lfemur -59.4642 10.2918 -9.36133
ltibia 61.6889
lfoot 381.586 -2.73834
ltoes -1.36777
268
root -5.05812 17.7986 3.76581 486.272 -77.0629 -482.094
lowerback -1.4512 2.64554 9.11081
upperback -2.21403 3.39184 2.98893
thorax -1.13604 1.53639 -1.96846
lowerneck -18.2911 -5.11739 -6.49722
upperneck 14.6246 -6.71632 7.50173
head 8.01186 -2.85038 2.72445
rclavicle -1.60565e-014 -1.69961e-014
rhumerus -16.4934 18.4843 -89.4899
rradius 72.7138
rwrist -3.47577
rhand -11.5166 -9.40072
rfingers 7.12502
rthumb 14.5228 -38.8724
lclavicle -1.60565e-014 -1.69961e-014
lhumerus -49.8742 6.04515 77.1346
lradius 38.3985
lwrist -9.02577
lhand -8.62538 5.73526
lfingers 7.12502
lthumb 17.307 34.9847
rfemur 9.9971 7.16429 35.8934
rtibia 20.7664
rfoot 348.478 1.0355
rtoes -0.720846
lfemur -56.4656 10.1063 -9.23591
ltibia 58.5678
lfoot 381.82 -2.68337
ltoes -1.66357
269
root -5.25277 17.7662 3.77621 486.933 -77.1815 -482.681
lowerback -1.88796 2.61343 8.94481
upperback -2.27722 3.30031 2.96649
thorax -0.972542 1.49716 -1.88357
lowerneck -18.2091 -5.07813 -6.462
upperneck 14.7682 -6.68888 7.50056
head 8.04224 -2.83687 2.72348
rclavicle 1.21849e-014 -2.51463e-014
rhumerus -18.6091 17.9321 -89.9026
rradius 72.4518
rwrist -3.45766
rhand -11.3219 -9.43581
rfingers 7.12502
rthumb 14.7104 -38.8939
lclavicle 1.21849e-014 -2.51463e-014
lhumerus -49.2906 6.11284 78.3545
lradius 39.212
lwrist -8.51056
lhand -9.04315 5.52998
lfingers 7.12502
lthumb 16.9049 34.8142
rfemur 10.167 6.90896 35.4156
rtibia 21.4301
rfoot 348.767 1.57475
rtoes -1.43196
lfemur -53.2854 9.77958 -9.07162
ltibia 55.4305
lfoot 381.486 -2.8991
ltoes -2.62091
270
root -5.45456 17.7342 3.78886 487.728 -77.2994 -483.442
lowerback -2.33754 2.59042 8.77162
upperback -2.33524 3.22055 2.94341
thorax -0.7954 1.46421 -1.79517
lowerneck -18.1045 -5.04041 -6.44077
upperneck 14.9267 -6.66472 7.50993
head 8.07476 -2.82525 2.72826
rclavicle -4.50682e-015 2.26615e-014
rhumerus -20.8274 17.2734 -90.2662
rradius 72.2014
rwrist -3.41583
rhand -11.1043 -9.45148
rfingers 7.12502
rthumb 14.92 -38.8941
lclavicle -4.50682e-015 2.26615e-014
lhumerus -48.6503 6.06864 79.7173
lradius 40.0908
lwrist -7.93075
lhand -9.44788 5.36467
lfingers 7.12502
lthumb 16.5153 34.6818
rfemur 10.234 6.55952 34.8257
rtibia 22.3573
rfoot 349.211 2.26175
rtoes -2.0871
lfemur -49.948 9.33878 -8.92514
ltibia 52.3184
lfoot 380.149 -3.53743
ltoes -3.93848
271
root -5.66274 17.7027 3.80438 488.598 -77.4036 -484.309
lowerback -2.79877 2.57352 8.61816
upperback -2.39384 3.14834 2.92236
thorax -0.610587 1.43451 -1.71543
lowerneck -17.9909 -5.00115 -6.43234
upperneck 15.1133 -6.64089 7.53278
head 8.1161 -2.81338 2.73984
rclavicle -1.47598e-014 -9.39258e-015
rhumerus -23.107 16.5342 -90.5604
rradius 71.9099
rwrist -3.32849
rhand -10.8611 -9.38731
rfingers 7.12502
rthumb 15.1543 -38.8124
lclavicle -1.47598e-014 -9.39258e-015
lhumerus -47.9401 5.91507 81.2119
lradius 41.02
lwrist -7.24953
lhand -9.82521 5.18689
lfingers 7.12502
lthumb 16.152 34.5339
rfemur 10.133 6.08648 34.1219
rtibia 23.6161
rfoot 349.87 3.10474
rtoes -2.64954
lfemur -46.5487 8.84059 -8.84949
ltibia 49.3575
lfoot 377.608 -4.51063
ltoes -5.11998
